<svg width="100" height="100" viewBox="0 0 100 100" fill="none" xmlns="http://www.w3.org/2000/svg">
<g clip-path="url(#clip0_521_2)">
<path d="M50 99.9999C77.6142 99.9999 99.9999 77.6142 99.9999 50C99.9999 22.3857 77.6142 0 50 0C22.3857 0 0 22.3857 0 50C0 77.6142 22.3857 99.9999 50 99.9999Z" fill="#FFC500"/>
<path d="M53.5441 92.9201C25.9248 92.9201 3.54415 70.5313 3.54415 42.9201C3.53731 36.505 4.76545 30.1485 7.16155 24.1976C2.46132 31.9824 -0.0155459 40.9065 7.34178e-05 50.0001C7.34178e-05 77.6113 22.3888 100 50 100C70.9956 100 88.9685 87.0622 96.3744 68.7226C87.6242 83.2248 71.7126 92.9201 53.5441 92.9201Z" fill="#FF9F1E"/>
<path d="M34.4586 39.7556C34.6448 35.4895 32.602 31.9354 29.8958 31.8172C27.1896 31.6991 24.8448 35.0616 24.6585 39.3277C24.4723 43.5938 26.5151 47.1479 29.2213 47.2661C31.9275 47.3842 34.2723 44.0217 34.4586 39.7556Z" fill="#00305F"/>
<path d="M31.9621 37.7221C32.709 37.7221 33.3145 37.1166 33.3145 36.3697C33.3145 35.6227 32.709 35.0172 31.9621 35.0172C31.2151 35.0172 30.6096 35.6227 30.6096 36.3697C30.6096 37.1166 31.2151 37.7221 31.9621 37.7221Z" fill="white"/>
<path d="M70.8101 47.2049C73.5163 47.0867 75.5591 43.5326 75.3729 39.2665C75.1866 35.0004 72.8418 31.6379 70.1356 31.756C67.4294 31.8742 65.3866 35.4283 65.5729 39.6944C65.7591 43.9605 68.1039 47.323 70.8101 47.2049Z" fill="#00305F"/>
<path d="M72.112 37.7221C72.8589 37.7221 73.4644 37.1166 73.4644 36.3697C73.4644 35.6227 72.8589 35.0172 72.112 35.0172C71.365 35.0172 70.7595 35.6227 70.7595 36.3697C70.7595 37.1166 71.365 37.7221 72.112 37.7221Z" fill="white"/>
<path d="M49.8209 76.5195C45.3088 76.5203 40.857 75.4833 36.8097 73.4887C32.8582 71.5659 29.306 68.8121 26.2589 65.3006C25.8577 64.8082 25.6639 64.179 25.7186 63.5461C25.7733 62.9133 26.0722 62.3266 26.552 61.9104C27.0318 61.4941 27.6548 61.281 28.289 61.3161C28.9232 61.3513 29.5188 61.632 29.9497 62.0987C35.3024 68.25 42.358 71.6311 49.8209 71.6311C53.6664 71.6311 57.3898 70.743 60.9012 68.9914C64.4127 67.2397 67.3946 64.8281 70.0262 61.6995C70.4497 61.2256 71.0411 60.9352 71.675 60.89C72.309 60.8448 72.9356 61.0483 73.422 61.4573C73.9085 61.8664 74.2164 62.4488 74.2806 63.0812C74.3448 63.7135 74.1601 64.3459 73.7658 64.8444C70.7024 68.4862 67.1095 71.3541 63.0847 73.3665C58.8889 75.4603 54.4241 76.5195 49.8209 76.5195Z" fill="#00305F"/>
<path d="M50.0002 8.21923e-05C39.2872 -0.0193889 28.8543 3.4211 20.2544 9.80943C32.0589 5.25411 45.0351 4.71296 57.1779 8.26959C57.0734 8.39785 56.9833 8.53719 56.9091 8.6851C55.4263 11.447 58.4489 15.9443 63.6469 18.7307C68.8449 21.5171 74.271 21.5497 75.7538 18.7959C75.8951 18.5268 75.9966 18.2387 76.0552 17.9404C89.5146 28.369 98.2077 44.6717 98.2892 63.0031C99.4283 58.7628 100.004 54.3907 100 50C100 22.3889 77.6114 8.21923e-05 50.0002 8.21923e-05Z" fill="#FFE059"/>
<path d="M79.7588 24.183C80.0232 22.8226 78.347 21.3523 76.0148 20.8989C73.6827 20.4456 71.5777 21.1809 71.3133 22.5414C71.0488 23.9018 72.7251 25.3721 75.0572 25.8255C77.3894 26.2788 79.4943 25.5434 79.7588 24.183Z" fill="#FFE059"/>
<path d="M68.8785 26.0652C69.2654 25.3949 68.7894 24.3956 67.8152 23.8332C66.841 23.2707 65.7375 23.3581 65.3506 24.0284C64.9636 24.6986 65.4396 25.6979 66.4138 26.2604C67.388 26.8228 68.4915 26.7354 68.8785 26.0652Z" fill="#FFE059"/>
</g>
<defs>
<clipPath id="clip0_521_2">
<rect width="100" height="100" fill="white"/>
</clipPath>
</defs>
</svg>
