<svg id="b79a379c-a82f-4fd2-b6f9-d951d2d2fd28" data-name="Layer 1" xmlns="http://www.w3.org/2000/svg" viewBox="0 0 16 16"><defs><style>.a14e3cd2-c6f1-4c23-be17-b7e3363ce611,.ef3127b1-260b-491d-9b80-278aeea085ab{fill:#4f4f4f;}.ef3127b1-260b-491d-9b80-278aeea085ab{fill-rule:evenodd;}</style></defs><path class="ef3127b1-260b-491d-9b80-278aeea085ab" d="M8,0a8,8,0,1,0,8,8A8,8,0,0,0,8,0ZM6.24,3.76c.46,0,.6,0,1.76,0H8c1.16,0,1.3,0,1.76,0a3.09,3.09,0,0,1,1,.2A2.18,2.18,0,0,1,12,5.2a3.09,3.09,0,0,1,.2,1c0,.46,0,.6,0,1.76s0,1.3,0,1.76a3,3,0,0,1-.2,1,2.1,2.1,0,0,1-.49.76,2.07,2.07,0,0,1-.75.49,3.09,3.09,0,0,1-1,.2c-.46,0-.6,0-1.76,0s-1.3,0-1.76,0a3,3,0,0,1-1-.2A2.14,2.14,0,0,1,4,10.79a3,3,0,0,1-.2-1c0-.46,0-.6,0-1.76s0-1.3,0-1.76a3.09,3.09,0,0,1,.2-1,2.07,2.07,0,0,1,.49-.75A2.1,2.1,0,0,1,5.21,4,3,3,0,0,1,6.24,3.76Z"/><path class="ef3127b1-260b-491d-9b80-278aeea085ab" d="M7.62,4.5H8c1.14,0,1.27,0,1.72,0a2.65,2.65,0,0,1,.79.14A1.27,1.27,0,0,1,11,5a1.23,1.23,0,0,1,.32.49,2.36,2.36,0,0,1,.15.8c0,.45,0,.58,0,1.72s0,1.27,0,1.72a2.42,2.42,0,0,1-.15.8A1.3,1.3,0,0,1,11,11a1.25,1.25,0,0,1-.49.31,2.28,2.28,0,0,1-.79.15c-.45,0-.58,0-1.72,0s-1.28,0-1.73,0a2.34,2.34,0,0,1-.79-.15A1.32,1.32,0,0,1,5,11a1.38,1.38,0,0,1-.32-.5,2.28,2.28,0,0,1-.15-.79c0-.45,0-.58,0-1.72s0-1.28,0-1.73a2.34,2.34,0,0,1,.15-.79,1.42,1.42,0,0,1,.81-.81,2.34,2.34,0,0,1,.79-.15c.4,0,.55,0,1.35,0Zm2.66.71a.51.51,0,0,0-.52.51.52.52,0,1,0,.52-.51ZM5.81,8A2.19,2.19,0,1,1,8,10.19,2.19,2.19,0,0,1,5.81,8Z"/><path class="a14e3cd2-c6f1-4c23-be17-b7e3363ce611" d="M8,6.58A1.42,1.42,0,1,1,6.58,8,1.41,1.41,0,0,1,8,6.58Z"/></svg>