<svg id="b32a9a48-3c2a-4bbb-a6ba-cebd5acb7ac9" data-name="Layer 1" xmlns="http://www.w3.org/2000/svg" viewBox="0 0 16 16"><defs><style>.bcaba186-e522-4437-83d3-3075dd8b5faa{fill:#4f4f4f;fill-rule:evenodd;}</style></defs><path class="bcaba186-e522-4437-83d3-3075dd8b5faa" d="M8,0a8,8,0,1,0,8,8A8,8,0,0,0,8,0Zm.65,10.53a.46.46,0,0,1-.23.1H7.91a3,3,0,0,1-2.12-1,13.6,13.6,0,0,1-2-3.3s-.06-.14,0-.21A.4.4,0,0,1,4,6.09H5.23a.53.53,0,0,1,.2.08.27.27,0,0,1,.1.14A8.18,8.18,0,0,0,6,7.23c.51.86.75,1,.92,1S7.09,7,7.09,7A1.22,1.22,0,0,0,7,6.4a.55.55,0,0,0-.38-.19c-.07,0,0-.17.19-.24a2.87,2.87,0,0,1,1.07-.1,1.88,1.88,0,0,1,.6.06c.32.07.31.32.29.85,0,.16,0,.34,0,.55v.15c0,.28,0,.59.17.7s.32,0,.89-.94a7,7,0,0,0,.47-1,.38.38,0,0,1,.12-.14.3.3,0,0,1,.16,0h1.29s.38,0,.44.12-.14.6-.66,1.28-.74.89-.72,1.1.17.3.47.58a3.68,3.68,0,0,1,.84.95h0c.28.46-.31.5-.31.5H10.74a.81.81,0,0,1-.57-.17A3.06,3.06,0,0,1,9.68,10c-.24-.27-.46-.52-.65-.47s-.31.78-.31.78A.39.39,0,0,1,8.65,10.53Z"/></svg>